<?xml version="1.0" encoding="UTF-8" standalone="no"?>
<svg
   xmlns:dc="http://purl.org/dc/elements/1.1/"
   xmlns:cc="http://creativecommons.org/ns#"
   xmlns:rdf="http://www.w3.org/1999/02/22-rdf-syntax-ns#"
   xmlns:svg="http://www.w3.org/2000/svg"
   xmlns="http://www.w3.org/2000/svg"
   xmlns:sodipodi="http://sodipodi.sourceforge.net/DTD/sodipodi-0.dtd"
   xmlns:inkscape="http://www.inkscape.org/namespaces/inkscape"
   version="1.1"
   x="0px"
   y="0px"
   width="480px"
   height="480px"
   viewBox="0 0 480 480"
   xml:space="preserve"
   id="svg2"
   inkscape:version="0.91 r13725"
   sodipodi:docname="JssorSlider.svg"><metadata
     id="metadata17"><rdf:RDF><cc:Work
         rdf:about=""><dc:format>image/svg+xml</dc:format><dc:type
           rdf:resource="http://purl.org/dc/dcmitype/StillImage" /><dc:title></dc:title></cc:Work></rdf:RDF></metadata><defs
     id="defs15" /><sodipodi:namedview
     pagecolor="#ffffff"
     bordercolor="#666666"
     borderopacity="1"
     objecttolerance="10"
     gridtolerance="10"
     guidetolerance="10"
     inkscape:pageopacity="0"
     inkscape:pageshadow="2"
     inkscape:window-width="1920"
     inkscape:window-height="1017"
     id="namedview13"
     showgrid="false"
     inkscape:zoom="0.49166667"
     inkscape:cx="240"
     inkscape:cy="240"
     inkscape:window-x="-8"
     inkscape:window-y="-8"
     inkscape:window-maximized="1"
     inkscape:current-layer="svg2" /><g
     id="slideshow"
     transform="matrix(1.2372868,0,0,1.2372868,-56.950497,-53.972672)"><path
       d="m 326.633,149.339 0,239.308 -239.316,0 0,-239.308 239.316,0 m 27.311,-27.312 -293.938,0 0,293.947 293.938,0 0,-293.947 0,0 z"
       id="path5"
       inkscape:connector-curvature="0" /><polygon
       points="311.131,295.03 269.426,264.467 224.069,290.082 159.881,243.17 103.038,287.299 103.038,373.066 311.131,373.066 "
       id="polygon7" /><polygon
       points="367.743,108.286 94.725,108.286 94.725,88.686 387.334,88.686 387.334,383.245 387.334,383.245 367.743,383.245 "
       id="polygon9" /><polygon
       points="400.399,75.625 120.848,75.625 120.848,56.028 420.008,56.028 420.008,357.116 420.008,357.116 400.399,357.116 "
       id="polygon11" /></g></svg>