<?xml version="1.0" encoding="UTF-8" standalone="no"?>
<svg
   xmlns:dc="http://purl.org/dc/elements/1.1/"
   xmlns:cc="http://creativecommons.org/ns#"
   xmlns:rdf="http://www.w3.org/1999/02/22-rdf-syntax-ns#"
   xmlns:svg="http://www.w3.org/2000/svg"
   xmlns="http://www.w3.org/2000/svg"
   xmlns:sodipodi="http://sodipodi.sourceforge.net/DTD/sodipodi-0.dtd"
   xmlns:inkscape="http://www.inkscape.org/namespaces/inkscape"
   height="1792"
   viewBox="0 0 1792 1792"
   width="1792"
   id="svg2"
   version="1.1"
   inkscape:version="0.91 r13725"
   sodipodi:docname="Tabs.svg">
  <metadata
     id="metadata10">
    <rdf:RDF>
      <cc:Work
         rdf:about="">
        <dc:format>image/svg+xml</dc:format>
        <dc:type
           rdf:resource="http://purl.org/dc/dcmitype/StillImage" />
        <dc:title></dc:title>
      </cc:Work>
    </rdf:RDF>
  </metadata>
  <defs
     id="defs8" />
  <sodipodi:namedview
     pagecolor="#ffffff"
     bordercolor="#666666"
     borderopacity="1"
     objecttolerance="10"
     gridtolerance="10"
     guidetolerance="10"
     inkscape:pageopacity="0"
     inkscape:pageshadow="2"
     inkscape:window-width="1920"
     inkscape:window-height="1017"
     id="namedview6"
     showgrid="false"
     inkscape:zoom="0.15823709"
     inkscape:cx="1010.753"
     inkscape:cy="738.75325"
     inkscape:window-x="-8"
     inkscape:window-y="-8"
     inkscape:window-maximized="1"
     inkscape:current-layer="svg2" />
  <path
     d="m 1247.2302,295.92428 -625.35144,-7.82014 c 0,-44 15.66667,-81.66667 47,-113 31.33333,-31.33333 69,-47 113,-47 l 301.99994,0 c 44,0 81.6667,15.66667 113,47 31.3334,31.33333 50.7066,87.14604 50.3515,120.82014 z"
     id="path4-4"
     inkscape:connector-curvature="0"
     sodipodi:nodetypes="ccssssc"
     style="fill:#808080" />
  <path
     d="m 224,128 c -44,0 -81.66667,15.66667 -113,47 -31.333333,31.33333 -47,69 -47,113 l 0,1216 c 0,44 15.666667,81.6667 47,113 31.33333,31.3333 69,47 113,47 l 1344,0 c 44,0 81.6667,-15.6667 113,-47 31.3333,-31.3333 47,-69 47,-113 l 0,-1147.55504 c 0,-19.67762 -12.4704,-58.06841 -57.835,-58.06841 L 686,288 c 0.35507,-33.6741 -15.66667,-81.66667 -47,-113 -31.33333,-31.33333 -69,-47 -113,-47 z m -32,256 1408,0 0,1120 c 0,8.6667 -3.1667,16.1667 -9.5,22.5 -6.3333,6.3333 -13.8333,9.5 -22.5,9.5 l -1344,0 c -8.66667,0 -16.16667,-3.1667 -22.5,-9.5 -6.33333,-6.3333 -9.5,-13.8333 -9.5,-22.5 z"
     id="path4"
     inkscape:connector-curvature="0"
     sodipodi:nodetypes="ssssssssscccsssccssccssc" />
</svg>
